MutatorSansInstance_1000-200.ufo
<glyph name="comma" format="2">
  <advance width="262"/>
  <unicode hex="002C"/>
  <outline>
    <contour>
      <point x="226" y="0" type="line"/>
      <point x="226" y="300" type="line"/>
      <point x="36" y="300" type="line"/>
      <point x="36" y="0" type="line"/>
      <point x="115" y="-16" type="line"/>
      <point x="107" y="12" type="line"/>
      <point x="85" y="-143" type="line"/>
      <point x="157" y="-145" type="line"/>
    </contour>
  </outline>
</glyph>
<glyph name="A" format="2">
  <advance width="850"/>
  <unicode hex="0041"/>
  <outline>
    <contour>
      <point x="12" y="0" type="line"/>
      <point x="270" y="0" type="line"/>
      <point x="395" y="800" type="line"/>
      <point x="171" y="800" type="line"/>
    </contour>
    <contour>
      <point x="130" y="120" type="line"/>
      <point x="652" y="120" type="line"/>
      <point x="652" y="332" type="line"/>
      <point x="130" y="332" type="line"/>
    </contour>
    <contour>
      <point x="472" y="0" type="line"/>
      <point x="838" y="0" type="line"/>
      <point x="677" y="800" type="line"/>
      <point x="331" y="800" type="line"/>
    </contour>
    <contour>
      <point x="245" y="540" type="line"/>
      <point x="545" y="540" type="line"/>
      <point x="545" y="800" type="line"/>
      <point x="245" y="800" type="line"/>
    </contour>
  </outline>
</glyph>
<glyph name="B" format="2">
  <advance width="828"/>
  <unicode hex="0042"/>
  <outline>
    <contour>
      <point x="36" y="0" type="line"/>
      <point x="368" y="0" type="line"/>
      <point x="368" y="800" type="line"/>
      <point x="36" y="800" type="line"/>
    </contour>
    <contour>
      <point x="314" y="345" type="line"/>
      <point x="432" y="345" type="line" smooth="yes"/>
      <point x="464" y="345"/>
      <point x="489" y="338"/>
      <point x="489" y="291" type="curve" smooth="yes"/>
      <point x="489" y="249"/>
      <point x="464" y="238"/>
      <point x="432" y="238" type="curve" smooth="yes"/>
      <point x="314" y="238" type="line"/>
      <point x="314" y="0" type="line"/>
      <point x="508" y="0" type="line" smooth="yes"/>
      <point x="763" y="0"/>
      <point x="816" y="94"/>
      <point x="816" y="230" type="curve" smooth="yes"/>
      <point x="816" y="356"/>
      <point x="757" y="417"/>
      <point x="663" y="434" type="curve"/>
      <point x="649" y="377" type="line"/>
      <point x="726" y="392"/>
      <point x="802" y="444"/>
      <point x="802" y="563" type="curve" smooth="yes"/>
      <point x="802" y="711"/>
      <point x="729" y="800"/>
      <point x="487" y="800" type="curve" smooth="yes"/>
      <point x="314" y="800" type="line"/>
      <point x="314" y="574" type="line"/>
      <point x="425" y="574" type="line" smooth="yes"/>
      <point x="458" y="574"/>
      <point x="483" y="564"/>
      <point x="483" y="524" type="curve" smooth="yes"/>
      <point x="483" y="475"/>
      <point x="458" y="472"/>
      <point x="425" y="472" type="curve" smooth="yes"/>
      <point x="314" y="472" type="line"/>
    </contour>
  </outline>
</glyph>
<glyph name="C" format="2">
  <advance width="932"/>
  <unicode hex="0043"/>
  <outline>
    <contour>
      <point x="591" y="375" type="line"/>
      <point x="586" y="284"/>
      <point x="555" y="254"/>
      <point x="488" y="254" type="curve" smooth="yes"/>
      <point x="463" y="254" type="line" smooth="yes"/>
      <point x="397" y="254"/>
      <point x="368" y="298"/>
      <point x="368" y="403" type="curve" smooth="yes"/>
      <point x="368" y="504"/>
      <point x="397" y="546"/>
      <point x="463" y="546" type="curve" smooth="yes"/>
      <point x="488" y="546" type="line" smooth="yes"/>
      <point x="554" y="546"/>
      <point x="586" y="518"/>
      <point x="591" y="431" type="curve"/>
      <point x="908" y="464" type="line"/>
      <point x="885" y="698"/>
      <point x="734" y="810"/>
      <point x="505" y="810" type="curve" smooth="yes"/>
      <point x="445" y="810" type="line" smooth="yes"/>
      <point x="186" y="810"/>
      <point x="24" y="679"/>
      <point x="24" y="403" type="curve" smooth="yes"/>
      <point x="24" y="124"/>
      <point x="186" y="-10"/>
      <point x="445" y="-10" type="curve" smooth="yes"/>
      <point x="505" y="-10" type="line" smooth="yes"/>
      <point x="734" y="-10"/>
      <point x="886" y="105"/>
      <point x="908" y="344" type="curve"/>
    </contour>
  </outline>
</glyph>
<glyph name="D" format="2">
  <advance width="855"/>
  <unicode hex="0044"/>
  <outline>
    <contour>
      <point x="36" y="0" type="line"/>
      <point x="351" y="0" type="line"/>
      <point x="351" y="800" type="line"/>
      <point x="36" y="800" type="line"/>
    </contour>
    <contour>
      <point x="296" y="546" type="line"/>
      <point x="392" y="546" type="line" smooth="yes"/>
      <point x="458" y="546"/>
      <point x="487" y="504"/>
      <point x="487" y="403" type="curve" smooth="yes"/>
      <point x="487" y="298"/>
      <point x="458" y="254"/>
      <point x="392" y="254" type="curve" smooth="yes"/>
      <point x="290" y="254" type="line"/>
      <point x="290" y="0" type="line"/>
      <point x="408" y="0" type="line" smooth="yes"/>
      <point x="667" y="0"/>
      <point x="831" y="130"/>
      <point x="831" y="403" type="curve" smooth="yes"/>
      <point x="831" y="673"/>
      <point x="667" y="800"/>
      <point x="408" y="800" type="curve" smooth="yes"/>
      <point x="296" y="800" type="line"/>
    </contour>
  </outline>
</glyph>
<glyph name="E" format="2">
  <advance width="722"/>
  <unicode hex="0045"/>
  <anchor x="366" y="841" name="top"/>
  <outline>
    <contour>
      <point x="44" y="0" type="line"/>
      <point x="360" y="0" type="line"/>
      <point x="360" y="800" type="line"/>
      <point x="44" y="800" type="line"/>
    </contour>
    <contour>
      <point x="134" y="530" type="line"/>
      <point x="686" y="530" type="line"/>
      <point x="686" y="800" type="line"/>
      <point x="134" y="800" type="line"/>
    </contour>
    <contour>
      <point x="134" y="0" type="line"/>
      <point x="686" y="0" type="line"/>
      <point x="686" y="270" type="line"/>
      <point x="134" y="270" type="line"/>
    </contour>
    <contour>
      <point x="134" y="315" type="line"/>
      <point x="616" y="315" type="line"/>
      <point x="616" y="485" type="line"/>
      <point x="134" y="485" type="line"/>
    </contour>
  </outline>
</glyph>
<glyph name="F" format="2">
  <advance width="690"/>
  <unicode hex="0046"/>
  <outline>
    <contour>
      <point x="36" y="0" type="line"/>
      <point x="376" y="0" type="line"/>
      <point x="376" y="800" type="line"/>
      <point x="36" y="800" type="line"/>
    </contour>
    <contour>
      <point x="134" y="546" type="line"/>
      <point x="654" y="546" type="line"/>
      <point x="654" y="800" type="line"/>
      <point x="134" y="800" type="line"/>
    </contour>
    <contour>
      <point x="134" y="267" type="line"/>
      <point x="620" y="267" type="line"/>
      <point x="620" y="481" type="line"/>
      <point x="134" y="481" type="line"/>
    </contour>
  </outline>
</glyph>
<glyph name="G" format="2">
  <advance width="946"/>
  <unicode hex="0047"/>
  <outline>
    <contour>
      <point x="464" y="307" type="line"/>
      <point x="651" y="307" type="line"/>
      <point x="651" y="216" type="line"/>
      <point x="771" y="0" type="line"/>
      <point x="910" y="0" type="line"/>
      <point x="910" y="412" type="line"/>
      <point x="464" y="412" type="line"/>
    </contour>
    <contour>
      <point x="607" y="377" type="line"/>
      <point x="602" y="286"/>
      <point x="566" y="254"/>
      <point x="488" y="254" type="curve" smooth="yes"/>
      <point x="463" y="254" type="line" smooth="yes"/>
      <point x="397" y="254"/>
      <point x="368" y="298"/>
      <point x="368" y="403" type="curve" smooth="yes"/>
      <point x="368" y="504"/>
      <point x="400" y="546"/>
      <point x="475" y="546" type="curve" smooth="yes"/>
      <point x="500" y="546" type="line" smooth="yes"/>
      <point x="570" y="546"/>
      <point x="602" y="518"/>
      <point x="607" y="431" type="curve"/>
      <point x="900" y="464" type="line"/>
      <point x="877" y="698"/>
      <point x="730" y="810"/>
      <point x="505" y="810" type="curve" smooth="yes"/>
      <point x="445" y="810" type="line" smooth="yes"/>
      <point x="186" y="810"/>
      <point x="24" y="679"/>
      <point x="24" y="403" type="curve" smooth="yes"/>
      <point x="24" y="124"/>
      <point x="186" y="-10"/>
      <point x="445" y="-10" type="curve" smooth="yes"/>
      <point x="469" y="-10" type="line" smooth="yes"/>
      <point x="694" y="-10"/>
      <point x="842" y="107"/>
      <point x="864" y="346" type="curve"/>
    </contour>
  </outline>
</glyph>
<glyph name="H" format="2">
  <advance width="872"/>
  <unicode hex="0048"/>
  <outline>
    <contour>
      <point x="36" y="0" type="line"/>
      <point x="376" y="0" type="line"/>
      <point x="376" y="800" type="line"/>
      <point x="36" y="800" type="line"/>
    </contour>
    <contour>
      <point x="158" y="262" type="line"/>
      <point x="714" y="262" type="line"/>
      <point x="714" y="522" type="line"/>
      <point x="158" y="522" type="line"/>
    </contour>
    <contour>
      <point x="496" y="0" type="line"/>
      <point x="836" y="0" type="line"/>
      <point x="836" y="800" type="line"/>
      <point x="496" y="800" type="line"/>
    </contour>
  </outline>
</glyph>
<glyph name="I" format="2">
  <advance width="652"/>
  <unicode hex="0049"/>
  <outline>
    <contour>
      <point x="156" y="0" type="line"/>
      <point x="496" y="0" type="line"/>
      <point x="496" y="800" type="line"/>
      <point x="156" y="800" type="line"/>
    </contour>
    <contour>
      <point x="36" y="522" type="line"/>
      <point x="616" y="522" type="line"/>
      <point x="616" y="800" type="line"/>
      <point x="36" y="800" type="line"/>
    </contour>
    <contour>
      <point x="36" y="0" type="line"/>
      <point x="616" y="0" type="line"/>
      <point x="616" y="278" type="line"/>
      <point x="36" y="278" type="line"/>
    </contour>
  </outline>
</glyph>
<glyph name="J" format="2">
  <advance width="704"/>
  <unicode hex="004A"/>
  <outline>
    <contour>
      <point x="226" y="-10" type="curve" smooth="yes"/>
      <point x="501" y="-10"/>
      <point x="668" y="111"/>
      <point x="668" y="361" type="curve" smooth="yes"/>
      <point x="668" y="800" type="line"/>
      <point x="324" y="800" type="line"/>
      <point x="324" y="420" type="line" smooth="yes"/>
      <point x="324" y="319"/>
      <point x="281" y="276"/>
      <point x="197" y="276" type="curve" smooth="yes"/>
      <point x="163" y="276"/>
      <point x="126" y="279"/>
      <point x="85" y="288" type="curve"/>
      <point x="36" y="16" type="line"/>
      <point x="91" y="-1"/>
      <point x="155" y="-10"/>
    </contour>
  </outline>
</glyph>
<glyph name="K" format="2">
  <advance width="920"/>
  <unicode hex="004B"/>
  <outline>
    <contour>
      <point x="36" y="0" type="line"/>
      <point x="376" y="0" type="line"/>
      <point x="376" y="800" type="line"/>
      <point x="36" y="800" type="line"/>
    </contour>
    <contour>
      <point x="324" y="312" type="line"/>
      <point x="387" y="312" type="line"/>
      <point x="519" y="0" type="line"/>
      <point x="908" y="0" type="line"/>
      <point x="685" y="533" type="line"/>
      <point x="398" y="452" type="line"/>
      <point x="324" y="452" type="line"/>
    </contour>
    <contour>
      <point x="386" y="426" type="line"/>
      <point x="625" y="318" type="line"/>
      <point x="901" y="800" type="line"/>
      <point x="539" y="800" type="line"/>
    </contour>
  </outline>
</glyph>
<glyph name="L" format="2">
  <advance width="654"/>
  <unicode hex="004C"/>
  <outline>
    <contour>
      <point x="36" y="0" type="line"/>
      <point x="376" y="0" type="line"/>
      <point x="376" y="800" type="line"/>
      <point x="36" y="800" type="line"/>
    </contour>
    <contour>
      <point x="134" y="0" type="line"/>
      <point x="634" y="0" type="line"/>
      <point x="634" y="256" type="line"/>
      <point x="134" y="256" type="line"/>
    </contour>
  </outline>
</glyph>
<glyph name="M" format="2">
  <advance width="925"/>
  <unicode hex="004D"/>
  <outline>
    <contour>
      <point x="36" y="0" type="line"/>
      <point x="300" y="0" type="line"/>
      <point x="300" y="800" type="line"/>
      <point x="36" y="800" type="line"/>
    </contour>
    <contour>
      <point x="889" y="0" type="line"/>
      <point x="889" y="800" type="line"/>
      <point x="625" y="800" type="line"/>
      <point x="625" y="0" type="line"/>
    </contour>
    <contour>
      <point x="757" y="424" type="line"/>
      <point x="625" y="800" type="line"/>
      <point x="447" y="550" type="line"/>
      <point x="478" y="550" type="line"/>
      <point x="300" y="800" type="line"/>
      <point x="168" y="424" type="line"/>
      <point x="416" y="121" type="line"/>
      <point x="510" y="121" type="line"/>
    </contour>
  </outline>
</glyph>
<glyph name="N" format="2">
  <advance width="867"/>
  <unicode hex="004E"/>
  <outline>
    <contour>
      <point x="36" y="0" type="line"/>
      <point x="300" y="0" type="line"/>
      <point x="300" y="800" type="line"/>
      <point x="36" y="800" type="line"/>
    </contour>
    <contour>
      <point x="133" y="507" type="line"/>
      <point x="567" y="0" type="line"/>
      <point x="734" y="293" type="line"/>
      <point x="300" y="800" type="line"/>
    </contour>
    <contour>
      <point x="567" y="0" type="line"/>
      <point x="831" y="0" type="line"/>
      <point x="831" y="800" type="line"/>
      <point x="567" y="800" type="line"/>
    </contour>
  </outline>
</glyph>
<glyph name="O" format="2">
  <advance width="951"/>
  <unicode hex="004F"/>
  <outline>
    <contour>
      <point x="445" y="-10" type="curve" smooth="yes"/>
      <point x="505" y="-10" type="line" smooth="yes"/>
      <point x="764" y="-10"/>
      <point x="927" y="124"/>
      <point x="927" y="403" type="curve" smooth="yes"/>
      <point x="927" y="679"/>
      <point x="764" y="810"/>
      <point x="505" y="810" type="curve" smooth="yes"/>
      <point x="445" y="810" type="line" smooth="yes"/>
      <point x="186" y="810"/>
      <point x="24" y="679"/>
      <point x="24" y="403" type="curve" smooth="yes"/>
      <point x="24" y="124"/>
      <point x="186" y="-10"/>
    </contour>
    <contour>
      <point x="463" y="254" type="line" smooth="yes"/>
      <point x="397" y="254"/>
      <point x="368" y="298"/>
      <point x="368" y="403" type="curve" smooth="yes"/>
      <point x="368" y="504"/>
      <point x="397" y="546"/>
      <point x="463" y="546" type="curve" smooth="yes"/>
      <point x="488" y="546" type="line" smooth="yes"/>
      <point x="554" y="546"/>
      <point x="584" y="504"/>
      <point x="584" y="403" type="curve" smooth="yes"/>
      <point x="584" y="298"/>
      <point x="554" y="254"/>
      <point x="488" y="254" type="curve" smooth="yes"/>
    </contour>
  </outline>
</glyph>
<glyph name="P" format="2">
  <advance width="812"/>
  <unicode hex="0050"/>
  <outline>
    <contour>
      <point x="36" y="0" type="line"/>
      <point x="376" y="0" type="line"/>
      <point x="376" y="800" type="line"/>
      <point x="36" y="800" type="line"/>
    </contour>
    <contour>
      <point x="286" y="541" type="line"/>
      <point x="429" y="541" type="line" smooth="yes"/>
      <point x="465" y="541"/>
      <point x="481" y="529"/>
      <point x="481" y="481" type="curve" smooth="yes"/>
      <point x="481" y="426"/>
      <point x="465" y="418"/>
      <point x="429" y="418" type="curve" smooth="yes"/>
      <point x="286" y="418" type="line"/>
      <point x="286" y="158" type="line"/>
      <point x="441" y="158" type="line" smooth="yes"/>
      <point x="703" y="158"/>
      <point x="792" y="263"/>
      <point x="792" y="481" type="curve" smooth="yes"/>
      <point x="792" y="695"/>
      <point x="703" y="800"/>
      <point x="442" y="800" type="curve" smooth="yes"/>
      <point x="286" y="800" type="line"/>
    </contour>
  </outline>
</glyph>
<glyph name="Q" format="2">
  <advance width="951"/>
  <unicode hex="0051"/>
  <outline>
    <contour>
      <point x="440" y="-130" type="line"/>
      <point x="772" y="-130" type="line"/>
      <point x="656" y="170" type="line"/>
      <point x="346" y="170" type="line"/>
    </contour>
    <component base="O"/>
  </outline>
</glyph>
<glyph name="R" format="2">
  <advance width="820"/>
  <unicode hex="0052"/>
  <outline>
    <contour>
      <point x="458" y="0" type="line"/>
      <point x="800" y="0" type="line"/>
      <point x="764" y="185" type="line" smooth="yes"/>
      <point x="748" y="243"/>
      <point x="706" y="285"/>
      <point x="632" y="285" type="curve"/>
      <point x="421" y="285" type="line"/>
    </contour>
    <contour>
      <point x="36" y="0" type="line"/>
      <point x="376" y="0" type="line"/>
      <point x="376" y="800" type="line"/>
      <point x="36" y="800" type="line"/>
    </contour>
    <contour>
      <point x="286" y="541" type="line"/>
      <point x="437" y="541" type="line" smooth="yes"/>
      <point x="473" y="541"/>
      <point x="489" y="529"/>
      <point x="489" y="481" type="curve" smooth="yes"/>
      <point x="489" y="426"/>
      <point x="473" y="418"/>
      <point x="437" y="418" type="curve" smooth="yes"/>
      <point x="286" y="418" type="line"/>
      <point x="286" y="219" type="line"/>
      <point x="457" y="219" type="line" smooth="yes"/>
      <point x="703" y="219"/>
      <point x="800" y="314"/>
      <point x="800" y="511" type="curve" smooth="yes"/>
      <point x="800" y="706"/>
      <point x="695" y="800"/>
      <point x="449" y="800" type="curve" smooth="yes"/>
      <point x="286" y="800" type="line"/>
    </contour>
  </outline>
</glyph>
<glyph name="S" format="2">
  <advance width="804"/>
  <unicode hex="0053"/>
  <outline>
    <contour>
      <point x="782" y="253" type="curve" smooth="yes"/>
      <point x="782" y="462"/>
      <point x="669" y="521"/>
      <point x="484" y="531" type="curve" smooth="yes"/>
      <point x="401" y="535" type="line" smooth="yes"/>
      <point x="314" y="541"/>
      <point x="307" y="542"/>
      <point x="307" y="552" type="curve" smooth="yes"/>
      <point x="307" y="563"/>
      <point x="322" y="567"/>
      <point x="379" y="567" type="curve" smooth="yes"/>
      <point x="461" y="567" type="line" smooth="yes"/>
      <point x="557" y="567"/>
      <point x="651" y="558"/>
      <point x="721" y="548" type="curve"/>
      <point x="757" y="780" type="line"/>
      <point x="685" y="794"/>
      <point x="562" y="810"/>
      <point x="496" y="810" type="curve" smooth="yes"/>
      <point x="435" y="810" type="line" smooth="yes"/>
      <point x="158" y="810"/>
      <point x="32" y="710"/>
      <point x="32" y="529" type="curve" smooth="yes"/>
      <point x="32" y="343"/>
      <point x="162" y="281"/>
      <point x="332" y="269" type="curve" smooth="yes"/>
      <point x="412" y="264" type="line" smooth="yes"/>
      <point x="490" y="258"/>
      <point x="505" y="259"/>
      <point x="505" y="246" type="curve" smooth="yes"/>
      <point x="505" y="238"/>
      <point x="488" y="234"/>
      <point x="431" y="234" type="curve" smooth="yes"/>
      <point x="352" y="234" type="line" smooth="yes"/>
      <point x="242" y="234"/>
      <point x="138" y="242"/>
      <point x="59" y="255" type="curve"/>
      <point x="23" y="20" type="line"/>
      <point x="105" y="5"/>
      <point x="242" y="-10"/>
      <point x="318" y="-10" type="curve" smooth="yes"/>
      <point x="383" y="-10" type="line" smooth="yes"/>
      <point x="698" y="-10"/>
      <point x="782" y="106"/>
    </contour>
  </outline>
</glyph>
<glyph name="T" format="2">
  <advance width="748"/>
  <unicode hex="0054"/>
  <outline>
    <contour>
      <point x="204" y="0" type="line"/>
      <point x="544" y="0" type="line"/>
      <point x="544" y="800" type="line"/>
      <point x="204" y="800" type="line"/>
    </contour>
    <contour>
      <point x="20" y="538" type="line"/>
      <point x="728" y="538" type="line"/>
      <point x="728" y="800" type="line"/>
      <point x="20" y="800" type="line"/>
    </contour>
  </outline>
</glyph>
<glyph name="U" format="2">
  <advance width="870"/>
  <unicode hex="0055"/>
  <outline>
    <contour>
      <point x="434" y="-10" type="curve" smooth="yes"/>
      <point x="706" y="-10"/>
      <point x="828" y="111"/>
      <point x="828" y="361" type="curve" smooth="yes"/>
      <point x="828" y="800" type="line"/>
      <point x="486" y="800" type="line"/>
      <point x="486" y="321" type="line" smooth="yes"/>
      <point x="486" y="278"/>
      <point x="470" y="260"/>
      <point x="434" y="260" type="curve" smooth="yes"/>
      <point x="401" y="260"/>
      <point x="384" y="278"/>
      <point x="384" y="321" type="curve" smooth="yes"/>
      <point x="384" y="800" type="line"/>
      <point x="42" y="800" type="line"/>
      <point x="42" y="361" type="line" smooth="yes"/>
      <point x="42" y="111"/>
      <point x="162" y="-10"/>
    </contour>
  </outline>
</glyph>
<glyph name="V" format="2">
  <advance width="856"/>
  <unicode hex="0056"/>
  <outline>
    <contour>
      <point x="844" y="800" type="line"/>
      <point x="578" y="800" type="line"/>
      <point x="445" y="0" type="line"/>
      <point x="677" y="0" type="line"/>
    </contour>
    <contour>
      <point x="378" y="800" type="line"/>
      <point x="12" y="800" type="line"/>
      <point x="179" y="0" type="line"/>
      <point x="525" y="0" type="line"/>
    </contour>
    <contour>
      <point x="607" y="260" type="line"/>
      <point x="307" y="260" type="line"/>
      <point x="307" y="0" type="line"/>
      <point x="607" y="0" type="line"/>
    </contour>
  </outline>
</glyph>
<glyph name="W" format="2">
  <advance width="983"/>
  <unicode hex="0057"/>
  <outline>
    <contour>
      <point x="971" y="800" type="line"/>
      <point x="688" y="800" type="line"/>
      <point x="635" y="270" type="line"/>
      <point x="673" y="270" type="line"/>
      <point x="618" y="800" type="line"/>
      <point x="399" y="800" type="line"/>
      <point x="349" y="270" type="line"/>
      <point x="388" y="270" type="line"/>
      <point x="330" y="800" type="line"/>
      <point x="12" y="800" type="line"/>
      <point x="125" y="0" type="line"/>
      <point x="444" y="0" type="line"/>
      <point x="494" y="421" type="line"/>
      <point x="448" y="421" type="line"/>
      <point x="511" y="0" type="line"/>
      <point x="862" y="0" type="line"/>
    </contour>
  </outline>
</glyph>
<glyph name="X" format="2">
  <advance width="856"/>
  <unicode hex="0058"/>
  <outline>
    <contour>
      <point x="442" y="0" type="line"/>
      <point x="844" y="0" type="line"/>
      <point x="563" y="475" type="line"/>
      <point x="414" y="800" type="line"/>
      <point x="12" y="800" type="line"/>
      <point x="288" y="355" type="line"/>
    </contour>
    <contour>
      <point x="12" y="0" type="line"/>
      <point x="286" y="0" type="line"/>
      <point x="395" y="314" type="line"/>
      <point x="606" y="341" type="line"/>
      <point x="844" y="800" type="line"/>
      <point x="570" y="800" type="line"/>
      <point x="454" y="529" type="line"/>
      <point x="245" y="489" type="line"/>
    </contour>
  </outline>
</glyph>
<glyph name="Y" format="2">
  <advance width="834"/>
  <unicode hex="0059"/>
  <outline>
    <contour>
      <point x="822" y="800" type="line"/>
      <point x="568" y="800" type="line"/>
      <point x="371" y="202" type="line"/>
      <point x="587" y="202" type="line"/>
    </contour>
    <contour>
      <point x="377" y="800" type="line"/>
      <point x="12" y="800" type="line"/>
      <point x="247" y="202" type="line"/>
      <point x="557" y="202" type="line"/>
    </contour>
    <contour>
      <point x="587" y="292" type="line"/>
      <point x="247" y="292" type="line"/>
      <point x="247" y="0" type="line"/>
      <point x="587" y="0" type="line"/>
    </contour>
  </outline>
</glyph>
<glyph name="Z" format="2">
  <advance width="768"/>
  <unicode hex="005A"/>
  <outline>
    <contour>
      <point x="36" y="256" type="line"/>
      <point x="420" y="220" type="line"/>
      <point x="732" y="544" type="line"/>
      <point x="348" y="580" type="line"/>
    </contour>
    <contour>
      <point x="36" y="544" type="line"/>
      <point x="732" y="544" type="line"/>
      <point x="732" y="800" type="line"/>
      <point x="36" y="800" type="line"/>
    </contour>
    <contour>
      <point x="36" y="0" type="line"/>
      <point x="732" y="0" type="line"/>
      <point x="732" y="256" type="line"/>
      <point x="36" y="256" type="line"/>
    </contour>
  </outline>
</glyph>
